# Blender v2.79 (sub 0) OBJ File: 'SwordPH.blend'
# www.blender.org
mtllib SwordPH.mtl
o Cube_Cube.001
v 0.050000 -0.050000 2.141465
v -0.050000 -0.050000 2.141465
v -0.050000 -0.050000 -7.858537
v 0.050000 -0.050000 -7.858537
v 0.050000 0.050000 2.141465
v -0.050000 0.050000 2.141465
v -0.050000 0.050000 -7.858537
v 0.050000 0.050000 -7.858537
v 1.000000 -0.050000 0.050000
v -1.000000 -0.050000 0.050000
v -1.000000 -0.050000 -0.050000
v 1.000000 -0.050000 -0.050000
v 1.000000 0.050000 0.050000
v -1.000000 0.050000 0.050000
v -1.000000 0.050000 -0.050000
v 1.000000 0.050000 -0.050000
vn 0.0000 0.0000 1.0000
vn -1.0000 0.0000 0.0000
vn 0.0000 0.0000 -1.0000
vn 1.0000 0.0000 0.0000
vn 0.0000 -1.0000 0.0000
vn 0.0000 1.0000 0.0000
usemtl None
s off
f 5//1 6//1 2//1 1//1
f 6//2 7//2 3//2 2//2
f 7//3 8//3 4//3 3//3
f 8//4 5//4 1//4 4//4
f 1//5 2//5 3//5 4//5
f 8//6 7//6 6//6 5//6
f 13//1 14//1 10//1 9//1
f 14//2 15//2 11//2 10//2
f 15//3 16//3 12//3 11//3
f 16//4 13//4 9//4 12//4
f 9//5 10//5 11//5 12//5
f 16//6 15//6 14//6 13//6
